<?xml version="1.0" encoding="utf-8"?>
<!-- Generator: Adobe Illustrator 25.4.1, SVG Export Plug-In . SVG Version: 6.00 Build 0)  -->
<!DOCTYPE svg PUBLIC "-//W3C//DTD SVG 1.1//EN" "http://www.w3.org/Graphics/SVG/1.1/DTD/svg11.dtd" [
	<!ENTITY ns_extend "http://ns.adobe.com/Extensibility/1.0/">
	<!ENTITY ns_ai "http://ns.adobe.com/AdobeIllustrator/10.0/">
	<!ENTITY ns_graphs "http://ns.adobe.com/Graphs/1.0/">
	<!ENTITY ns_vars "http://ns.adobe.com/Variables/1.0/">
	<!ENTITY ns_imrep "http://ns.adobe.com/ImageReplacement/1.0/">
	<!ENTITY ns_sfw "http://ns.adobe.com/SaveForWeb/1.0/">
	<!ENTITY ns_custom "http://ns.adobe.com/GenericCustomNamespace/1.0/">
	<!ENTITY ns_adobe_xpath "http://ns.adobe.com/XPath/1.0/">
]>
<svg version="1.1" id="Capa_1" xmlns:x="&ns_extend;" xmlns:i="&ns_ai;" xmlns:graph="&ns_graphs;"
	 xmlns="http://www.w3.org/2000/svg" xmlns:xlink="http://www.w3.org/1999/xlink" x="0px" y="0px" viewBox="0 0 140 26.8"
	 style="enable-background:new 0 0 140 26.8;" xml:space="preserve">
<style type="text/css">
	.st0{fill:#444141;}
	.st1{fill:#23AA83;}
</style>
<metadata>
	<sfw  xmlns="&ns_sfw;">
		<slices></slices>
		<sliceSourceBounds  bottomLeftOrigin="true" height="26.8" width="140" x="-191.6" y="-83.7"></sliceSourceBounds>
	</sfw>
</metadata>
<g>
	<path class="st0" d="M57.4,10.5c1.9-1.8,2.5-4.6,1.6-7.1c-1-2.5-3-3.3-5.5-3.3c-3,0-6,0-8.9,0c-0.8,0-1,0.2-1.1,1
		C42.9,3.7,40,17.8,39,22.2c-0.2,1,0,1.2,1,1.2c1.7,0,8.9,0.1,10.8-0.1c3.4-0.2,6.3-2.6,7.2-5.9c0.5-1.9,0.6-3.8-0.8-5.3
		C56.7,11.4,56.7,11.2,57.4,10.5z M50.5,18.1c-1.6,0.1-3.1,0-4.8,0c0.2-1.1,0.5-2.2,0.6-3.3c0.1-0.7,0.5-0.9,1.1-0.9
		c1,0.1,1.9,0,2.9,0c1.5,0,2,0.4,2,1.7C52.5,16.9,51.7,18,50.5,18.1L50.5,18.1z M53.4,7c0,1.4-1.1,2.5-2.5,2.6c-1.1,0-2.2,0-3.4,0
		c0.2-1.2,0.5-2.3,0.7-3.4c0.1-0.5,0.3-0.8,0.9-0.8c1,0.1,1.9,0,2.9,0C53,5.5,53.4,6,53.4,7L53.4,7z"/>
	<path class="st0" d="M136.9,11.8c-0.1-0.3-0.2-0.6-0.3-0.9c0,0-0.1-0.3-0.1-0.3l0,0c-0.6-1.1-1.4-2-2.5-2.6
		c-1.5-0.7-3.1-1.1-4.8-0.9c-5.9,0.3-10,5.3-9,11.1c0.5,3,2.7,4.8,6.4,5.2c3.5,0.3,6.6-1,8.6-3.6c0.2-0.3,0.4-0.5,0.6-0.8l0,0
		c0.6-1,1-2,1.2-3.1v0C137.3,14.5,137.3,13.2,136.9,11.8z M127.6,18.6c-1.1,0-2-0.8-2.1-1.9c-0.5-2.1,0.8-4.2,2.9-4.7
		c0.2,0,0.4-0.1,0.6-0.1c1.8-0.1,2.7,0.7,2.7,2.5C131.6,17.1,130,18.8,127.6,18.6z"/>
	<path class="st0" d="M22.3,7.9c-0.7-4.7-3.5-7.4-8-7.7c-3-0.2-6-0.1-9-0.1C4.9,0,4.8,0.2,4.7,0.6C3.1,8.2,1.6,15.8,0,23.4
		c3.6,0,7.2,0.1,10.8,0c2.1-0.1,4.2-0.8,5.9-2C21.4,18.4,23,12.3,22.3,7.9z M13.6,16.6c-0.9,0.6-1.9,0.9-3,1c-1.8,0.1-1.7,0-3.5,0
		C7.9,13.8,8.7,10,9.4,6.2c0-0.2,0.1-0.3,0.3-0.3c0.9,0,1.7,0,2.6,0c2.3,0.2,3.7,1.5,4,3.9C16.7,12,15.9,15.1,13.6,16.6L13.6,16.6z"
		/>
	<path class="st1" d="M78.9,11.9c-0.1-0.5-0.3-0.9-0.5-1.3l-0.1-0.2l-0.1-0.2c-0.5-1-1.2-1.8-2-2.6c-0.2-0.2-0.5-0.5-0.8-0.7
		l1.6-4.3l-8.6,2.7c-5.2,0.8-8.7,5.7-7.9,10.8c0.4,2.6,1.9,5,4.1,6.4l-1.6,4.2l9.7-3C77.6,22.3,80.4,17,78.9,11.9
		C78.9,12,78.9,12,78.9,11.9z M70.5,11.1c0.1,0,0.2,0.1,0.4,0.1c1.4,0.5,2.3,2.3,2,4.1c-0.2,1-0.7,1.8-1.4,2.4
		c-0.4,0.3-0.9,0.5-1.3,0.6c-0.1,0-0.2,0-0.3,0.1c-0.2,0-0.4,0-0.7,0c-0.8-0.2-1.5-0.7-1.9-1.5c-0.4-0.8-0.6-1.8-0.4-2.8
		C67.1,12.1,68.8,10.7,70.5,11.1z"/>
	<path class="st0" d="M102,7.2c-4.8-0.3-9,2.1-10.6,6.4c-1.7,4.3-0.3,9.3,4.8,9.8c2.2,0.3,4.4,0.1,6.5-0.3c1.1-0.3,2-1.1,2.2-2.3
		l0.2-2c0-0.2-0.1-0.4-0.3-0.4c-0.1,0-0.1,0-0.2,0c-9.4,2.5-8.4-1.8-8.4-1.8c5.3,1.9,9.4-0.3,10.5-2.9S106.8,7.5,102,7.2z
		 M100.8,13.8c-1.1,0.5-2.7,0.3-3.5,0c-0.3-0.1-0.4-0.4-0.3-0.7c0,0,0,0,0-0.1c0.6-0.9,1.5-1.6,2.5-1.8
		C101.7,10.7,102.2,13.1,100.8,13.8z"/>
	<path class="st0" d="M88.9,19.8c0.1-0.4-0.2-0.9-0.6-1c0,0-0.1,0-0.1,0l0,0c-1.2,0-1.4-0.3-1.4-1.5c0-0.3,0.1-0.7,0.1-1
		c0.6-2.9,1.3-5.7,1.8-8.6c0.4-2.1,1-4.2,1.3-6.3c0.1-0.7-0.3-1.4-1-1.5c-0.1,0-0.2,0-0.2,0h-3.1c-0.4,0-0.8,0.3-0.9,0.7
		c-1.1,5.4-2.3,10.9-3.4,16.3c-0.7,3.5,1.6,6.4,5.2,6.4c1.6,0,1.8-0.6,2-1.3L88.9,19.8z"/>
	<path class="st0" d="M120.8,7.5h-3.7c-0.3,0-0.5-0.2-0.5-0.5c0,0,0-0.1,0-0.1c0.3-1.5,0.6-3,0.7-3.4c0.1-0.6,0-0.8-0.7-0.9
		c-1.2-0.1-3.2-0.1-3.7,0.4c-0.4,0.3-0.9,2.1-1.3,3.9c-0.1,0.4-0.4,0.6-0.8,0.6h-1.6c-0.4,0-0.7,0.2-0.8,0.6l-0.7,2.1
		c-0.1,0.4,0.1,0.9,0.5,1.1c0.1,0,0.2,0,0.3,0h1.4c0.3,0,0.5,0.2,0.5,0.5c0,0,0,0.1,0,0.1c-0.6,2.3-1.2,4.7-1.4,5.6
		c-0.5,2.9,0.5,4.8,3,5.5c1.4,0.3,2.8,0.4,4.2,0.2c2.5-0.3,2.5-0.3,2.8-2.8c0.1-0.7-0.3-1.3-1-1.4c-0.1,0-0.3,0-0.4,0
		c-0.3,0-0.6,0.1-0.9,0.1c-1.8,0-2.5-0.8-2.1-2.5c0.1-0.5,0.6-2.8,1-4.9c0-0.2,0.2-0.4,0.5-0.4h3.5c0.4,0,0.7-0.2,0.8-0.6l0.9-2.6
		c0.1-0.2,0-0.5-0.3-0.6C120.9,7.6,120.8,7.5,120.8,7.5z"/>
	<path class="st0" d="M34.2,7.2c-4.8-0.3-9,2.1-10.6,6.4c-1.7,4.3-0.3,9.3,4.8,9.8c2.2,0.3,4.4,0.1,6.5-0.3c1.1-0.3,2-1.1,2.2-2.3
		l0.2-2c0-0.2-0.1-0.4-0.3-0.4c-0.1,0-0.1,0-0.2,0c-9.4,2.5-8.4-1.8-8.4-1.8c5.3,1.9,9.4-0.3,10.5-2.9C39.8,11,39,7.5,34.2,7.2z
		 M33,13.8c-1.1,0.5-2.7,0.3-3.5,0c-0.3-0.1-0.4-0.4-0.3-0.7c0,0,0,0,0-0.1c0.5-0.9,1.4-1.6,2.5-1.8C33.9,10.7,34.3,13.1,33,13.8z"
		/>
	<path class="st0" d="M138.6,9.9c-0.2,0-0.4,0-0.5-0.1c-0.2-0.1-0.3-0.2-0.4-0.3c-0.3-0.3-0.4-0.6-0.4-1c0-0.2,0-0.4,0.1-0.5
		c0.1-0.2,0.2-0.3,0.3-0.4c0.1-0.1,0.3-0.2,0.4-0.3c0.2-0.1,0.4-0.1,0.5-0.1c0.2,0,0.4,0,0.5,0.1c0.2,0.1,0.3,0.2,0.4,0.3
		c0.1,0.1,0.2,0.3,0.3,0.4c0.1,0.2,0.1,0.4,0.1,0.5c0,0.2,0,0.4-0.1,0.5c-0.1,0.2-0.2,0.3-0.3,0.4c-0.1,0.1-0.3,0.2-0.4,0.3
		C139,9.9,138.8,9.9,138.6,9.9z M138.6,9.7c0.2,0,0.4-0.1,0.6-0.2c0.2-0.1,0.3-0.3,0.4-0.4c0.2-0.4,0.2-0.8,0-1.2
		c-0.1-0.2-0.2-0.3-0.4-0.4c-0.2-0.1-0.4-0.2-0.6-0.2c-0.2,0-0.4,0.1-0.6,0.2c-0.6,0.3-0.7,1-0.4,1.6c0.1,0.2,0.3,0.3,0.4,0.4
		C138.2,9.7,138.4,9.7,138.6,9.7z M138,9.3V7.7h0.8c0.2,0,0.3,0,0.4,0.1c0.1,0.1,0.2,0.2,0.2,0.4c0,0.2-0.1,0.4-0.3,0.4l0.4,0.6
		h-0.4l-0.3-0.5h-0.3v0.5L138,9.3z M138.3,8.4h0.4c0.1,0,0.1,0,0.2,0c0,0,0.1-0.1,0.1-0.1c0-0.1-0.1-0.2-0.2-0.2h-0.4L138.3,8.4z"/>
</g>
</svg>
